<svg xmlns="http://www.w3.org/2000/svg" viewBox="0 0 627.3 104.8">
    <defs>
        <style>.f{fill:#023f68}.g{fill:#01579b}.h{fill:#3abeee}.i{fill:#43d0fe}</style>
    </defs>
    <g id="b">
        <g id="c">
            <text style="font-family:Manrope-SemiBold,Manrope;font-size:83.26px" transform="translate(124 72)">
                <tspan x="0" y="0" style="letter-spacing:-.04em">Hoo</tspan>
                <tspan x="150.6" y="0" style="letter-spacing:-.05em">k</tspan>
                <tspan x="190" y="0" style="letter-spacing:-.04em">ed_Bloc</tspan>
            </text>
            <path
                d="M623 20a5 5 0 0 1-5-3v-4a5 5 0 0 1 3-2 5 5 0 0 1 3 0 5 5 0 0 1 3 2v4l-1 1a5 5 0 0 1-3 2Zm0-1a3 3 0 0 0 2-1l1-2a3 3 0 0 0 0-2l-1-1-1-1h-3l-1 1-1 1v2l1 2h1l2 1Zm0-1-1-1h-1v-1l-1-1 1-1v-1h3l1 1h-1a1 1 0 0 0-1 0v-1a1 1 0 0 0-1 1h-1a3 3 0 0 0 0 2h1v1h1v-1a1 1 0 0 0 1 0h1l-1 1a2 2 0 0 1-1 0v1Z"/>
            <text style="font-size:19.14px;font-family:Manrope-SemiBold,Manrope" transform="translate(130 100)">
                <tspan x="0" y="0">Hook + Bloc</tspan>
            </text>
            <path d="m0 78 45 27V78H0z" class="h"/>
            <path d="m60 96 31-18H60v18zM0 26v52l23-39L0 26z" class="g"/>
            <path d="M91 78V26L68 39l23 39z" class="i"/>
            <path d="M45 78 22 66l1-27L0 78h45zm23-13 5 4-13 8v1h31L68 39v26z" class="f"/>
            <path d="M68 39 46 52l22 13V39z" class="h"/>
            <path d="m22 66 23 12 1-26-23-13-1 27zm9-40L46 0 0 26l23 13 8-13z" class="i"/>
            <path d="m68 39 23-13L46 0l15 26 7 13z" class="g"/>
            <path d="m23 39 23-13 22 13-7-13L46 0 31 26l-8 13z" class="f"/>
            <path d="M68 39 46 26 23 39l23 13 22-13z" class="g"/>
        </g>
    </g>
</svg>