<?xml version="1.0" encoding="UTF-8"?><svg xmlns="http://www.w3.org/2000/svg" viewBox="0 0 627.28 104.81"><defs><style>.d{letter-spacing:-.04em;}.e{letter-spacing:-.04em;}.f{fill:#023f68;}.g{fill:#01579b;}.h{fill:#3abeee;}.i{fill:#43d0fe;}.j{font-size:83.26px;}.j,.k{font-family:Manrope-SemiBold, Manrope;}.k{font-size:19.14px;}.l{letter-spacing:-.05em;}</style></defs><g id="a"/><g id="b"><g id="c"><g><g><text class="j" transform="translate(124.43 71.6)"><tspan class="d" x="0" y="0">Hoo</tspan><tspan class="l" x="150.57" y="0">k</tspan><tspan class="e" x="190.04" y="0">ed_Bloc</tspan></text><path d="M622.59,19.79c-.65,0-1.25-.12-1.82-.36-.57-.24-1.07-.58-1.49-1.01s-.76-.93-1.01-1.5c-.24-.57-.36-1.17-.36-1.82s.12-1.26,.36-1.82c.24-.57,.58-1.06,1.01-1.49s.93-.77,1.49-1.01c.57-.24,1.17-.36,1.82-.36s1.26,.12,1.83,.37c.57,.24,1.06,.58,1.49,1.01s.76,.93,1.01,1.49c.24,.57,.36,1.17,.36,1.82s-.12,1.25-.36,1.82c-.24,.57-.58,1.07-1.01,1.49-.43,.43-.93,.77-1.49,1.01-.57,.24-1.17,.37-1.83,.37Zm0-1.17c.49,0,.94-.09,1.36-.27,.42-.18,.8-.43,1.12-.76s.58-.7,.76-1.12c.18-.43,.27-.88,.27-1.37s-.09-.94-.27-1.36c-.18-.42-.43-.8-.76-1.12-.32-.32-.7-.58-1.12-.76-.42-.18-.88-.27-1.36-.27s-.95,.09-1.37,.27c-.43,.18-.8,.43-1.12,.76s-.58,.7-.76,1.12c-.18,.42-.27,.88-.27,1.36s.09,.95,.27,1.37c.18,.43,.43,.8,.76,1.12,.32,.32,.7,.58,1.12,.76,.43,.18,.88,.27,1.37,.27Zm.08-1.03c-.38,0-.71-.06-.99-.19-.28-.13-.53-.32-.75-.59-.2-.26-.35-.53-.43-.82-.08-.29-.13-.59-.13-.9,0-.32,.05-.63,.14-.92,.09-.29,.23-.55,.42-.79,.22-.26,.47-.46,.76-.59,.29-.13,.63-.19,1.03-.19,.22,0,.42,.02,.6,.06,.18,.04,.37,.13,.56,.25,.21,.12,.39,.28,.54,.48s.26,.42,.32,.68l-.96,.26c-.04-.11-.09-.22-.16-.32-.07-.1-.16-.19-.26-.28-.09-.08-.2-.14-.32-.18s-.24-.05-.37-.05c-.2,0-.38,.04-.54,.12-.16,.08-.3,.19-.42,.34-.12,.15-.2,.32-.24,.52-.04,.2-.06,.4-.06,.6,0,.21,.02,.41,.07,.61,.05,.2,.13,.37,.23,.52,.11,.15,.25,.26,.41,.34,.16,.08,.35,.12,.56,.12,.29,0,.52-.07,.7-.21,.09-.08,.17-.16,.23-.25,.06-.09,.11-.19,.16-.31l.97,.22c-.07,.23-.18,.43-.31,.61-.13,.18-.28,.34-.45,.46-.18,.13-.37,.22-.58,.29-.21,.07-.45,.1-.74,.1Z"/><text class="k" transform="translate(130.26 99.93)"><tspan x="0" y="0">Hook + Bloc</tspan></text></g><g><polygon class="h" points=".03 78.46 45.46 104.53 45.49 78.44 .03 78.46"/><polygon class="g" points="59.76 96.3 90.86 78.41 59.76 78.43 59.76 96.3"/><polygon class="g" points="0 26.15 .03 78.46 22.87 39.3 0 26.15"/><polygon class="i" points="90.86 78.41 90.83 25.89 68.13 39.14 90.86 78.41"/><polygon class="f" points="45.49 78.42 22.49 65.68 22.49 65.68 22.87 39.3 .03 78.46 45.49 78.44 45.49 78.42"/><polygon class="f" points="68.14 65.38 68.09 65.41 73.45 68.51 59.76 76.51 59.76 78.43 90.86 78.41 68.13 39.14 68.14 65.38"/><polygon class="h" points="68.13 39.14 45.66 52.24 45.52 52.32 68.09 65.41 68.14 65.38 68.13 39.14"/><polygon class="i" points="22.49 65.68 22.49 65.68 45.49 78.42 45.52 52.32 22.87 39.3 22.49 65.68"/><polygon class="i" points="30.6 26.07 45.63 .29 0 26.15 22.87 39.3 30.6 26.07"/><polygon class="g" points="68.13 39.14 90.83 25.89 45.63 .29 60.51 25.98 68.13 39.14"/><polygon class="f" points="22.87 39.3 45.65 26.41 68.13 39.14 60.51 25.98 45.63 .29 30.6 26.07 22.87 39.3"/><polygon class="g" points="68.13 39.14 45.65 26.41 22.87 39.3 45.52 52.32 45.66 52.24 68.13 39.14"/></g></g></g></g></svg>